<?xml version="1.0" standalone="no"?>
<!DOCTYPE svg PUBLIC "-//W3C//DTD SVG 20010904//EN"
 "http://www.w3.org/TR/2001/REC-SVG-20010904/DTD/svg10.dtd">
<svg version="1.0" xmlns="http://www.w3.org/2000/svg"
 width="386.000000pt" height="398.000000pt" viewBox="0 0 386.000000 398.000000"
 preserveAspectRatio="xMidYMid meet">
<metadata>
Created by potrace 1.15, written by Peter Selinger 2001-2017
</metadata>
<g transform="translate(0.000000,398.000000) scale(0.100000,-0.100000)"
fill="#000000" stroke="none">
<path d="M0 1990 l0 -1990 1930 0 1930 0 0 1990 0 1990 -1930 0 -1930 0 0
-1990z m2216 1702 l289 -168 0 -934 0 -935 -255 -148 c-140 -81 -271 -156
-290 -166 l-36 -19 -289 168 -290 168 -3 307 c-1 168 -6 305 -11 303 -4 -2
-72 -41 -149 -88 l-141 -85 -1 -305 0 -305 439 -253 c241 -138 442 -252 448
-252 5 0 207 114 448 254 l440 253 3 927 c1 510 6 926 10 924 5 -2 167 -95
360 -206 l352 -204 0 -928 0 -928 -122 -70 c-68 -38 -422 -243 -788 -454 -366
-212 -674 -389 -685 -395 -17 -10 -133 54 -820 451 l-800 462 -2 935 -2 934
802 462 c441 255 802 463 803 463 0 0 131 -75 290 -168z"/>
<path d="M1203 3247 l-712 -412 2 -835 2 -834 550 -318 c303 -175 625 -361
716 -413 l166 -95 644 371 c354 204 677 389 716 412 l73 42 0 835 0 835 -179
103 c-98 56 -181 102 -184 102 -4 0 -8 -372 -9 -826 l-3 -826 -525 -304 c-289
-167 -530 -303 -537 -301 -7 1 -246 137 -532 302 l-520 300 -1 402 0 401 318
194 317 195 3 -408 2 -408 83 -49 c45 -26 139 -81 208 -121 l126 -72 204 118
204 118 2 835 2 835 -200 115 c-110 63 -205 116 -212 117 -7 1 -332 -184 -724
-410z"/>
</g>
</svg>
